<?xml version="1.0" encoding="utf-8"?>
<!-- Generator: Adobe Illustrator 25.1.0, SVG Export Plug-In . SVG Version: 6.00 Build 0)  -->
<svg version="1.1" id="Ebene_1" xmlns="http://www.w3.org/2000/svg" xmlns:xlink="http://www.w3.org/1999/xlink" x="0px" y="0px"
	 viewBox="0 0 65.9 64.9" style="enable-background:new 0 0 65.9 64.9;" xml:space="preserve">
<path d="M47.4,64c-0.1,0-0.3,0-0.3-0.1h0L32.6,55l-14.2,8.8c-0.1,0.1-0.3,0.3-0.6,0.3c-0.1,0-0.3,0-0.3-0.1h0L2.3,54.5
	C2.2,54.4,2,54.2,2,53.8V37.6c0-0.3,0.2-0.6,0.3-0.8l0.1-0.1l14.5-9V12.2c0-0.3,0.2-0.6,0.3-0.8l0.1-0.1l15-9.1c0.3-0.2,0.6-0.2,1,0
	l15,9.3c0.1,0.1,0.3,0.3,0.3,0.8V28l14.5,8.9c0.1,0.1,0.3,0.3,0.3,0.8v16.2c0,0.3-0.2,0.6-0.3,0.8l-0.1,0.1l-15.1,9
	C47.9,63.9,47.7,64,47.4,64z M47.4,62.9C47.4,62.9,47.4,62.9,47.4,62.9l0.2-0.1v-0.1H47L47.4,62.9z M33.8,53.3l12.9,8V47.5l-12.9-8
	V53.3z M48.6,47.5v13.8l12.9-8V39.5L48.6,47.5z M18.9,47.5v13.8l12.9-8V39.5L18.9,47.5z M4,53.3l12.9,8V47.5L4,39.5V53.3z
	 M32.8,53.9l8.7,5.3L32.8,53.9L32.8,53.9z M62.5,53.9l-0.9,0.6L62.5,53.9C62.5,53.9,62.5,53.9,62.5,53.9z M62.5,37.7v16.2
	c0,0,0,0,0,0L62.5,37.7z M3,37.6C3,37.6,3,37.6,3,37.6l0,16.2V37.7l6.5,4l0,0l-6.4-4l14.8-9.2l4.2,2.5l-4.2-2.6v-0.1L3,37.6z
	 M13.8,44.4l4.1,2.6v0l14.9-9.2l0,0l-14.8,9.2L13.8,44.4z M47.6,46.9L47.6,46.9l14.9-9.2l-8.1-5l0,0l8,5L47.6,46.9z M41.1,41.7
	l6.5,4l13-8l-6.2-3.8L41.1,41.7z M11.4,41.7l6.5,4l13-8l-6.2-3.8L11.4,41.7z M34.6,37.7l4.6,2.8l13.3-7.8l-4.9-3L34.6,37.7z
	 M4.9,37.7l4.6,2.8l13.3-7.8l-4.9-3L4.9,37.7z M24.7,32.7l8,5l0,0L24.7,32.7L24.7,32.7z M28.6,18.9l4.2,2.6v16.1V21.5l7.9-4.9
	l-7.9,4.8L28.6,18.9z M33.8,22.1v13.8l12.9-8V14.1L33.8,22.1z M18.9,27.9l12.9,8V22.1l-12.9-8V27.9z M47.6,28.5L47.6,28.5l0.1-16.2
	L47.6,28.5L47.6,28.5z M17.9,12.2C17.9,12.2,17.9,12.2,17.9,12.2l0,15.9V12.3l6.5,4L34.9,10l-10.5,6.1L17.9,12.2l2.3-1.4L17.9,12.2z
	 M26.3,16.3l6.5,4l13.1-8l-6.3-3.9L26.3,16.3z M19.8,12.2l4.6,2.8l13.3-7.8l-4.9-3L19.8,12.2z"/>
</svg>
